Coordinates
version=1
nRows=19
nColumns=33
inDegrees=yes

Units are S.I. units (second, meters, Newtons, ...)
Angles are in degrees.

endheader
time	ground_thorax_rot_x	ground_thorax_rot_y	ground_thorax_rot_z	ground_thorax_tx	ground_thorax_ty	ground_thorax_tz	clav_prot_r	clav_elev_r	scapula_abduction_r	scapula_elevation_r	scapula_upward_rot_r	scapula_winging_r	shoulder_elv_r	plane_of_elev_r	axial_rot_r	elbow_flexion_r	pro_sup_r	wrist_flex_r	wrist_dev_r	clav_prot_l	clav_elev_l	scapula_abduction_l	scapula_elevation_l	scapula_upward_rot_l	scapula_winging_l	shoulder_elv_l	plane_of_elev_l	axial_rot_l	elbow_flexion_l	pro_sup_l	wrist_flex_l	wrist_dev_l
      9.04000000	     21.36359643	     35.73897861	     55.76886768	    -68.41732765	    775.42661170	     10.48062675	     12.96820660	     36.95056283	     32.40591865	     45.00000000	    -43.73581633	   2076.74881980	  -2278.73397474	    149.11289738	   -119.02981871	   2168.91827996	     21.39050236	     16.53928908	     11.96086890	      8.23288956	    -45.00000000	    -36.14463433	     45.00000000	    -45.00000000	  -2783.89992704	    429.42949612	     14.91252582	    -74.32169684	    728.87357836	     27.96141413	      8.73337873	    -19.00621534
      9.05000000	     21.49336067	     35.67970851	     56.00313444	    -65.15347686	    775.23524222	     10.71481516	     13.09774318	     37.09788746	     33.20268606	     45.00000000	    -43.99214450	   2076.60152469	  -2279.30333112	    149.30367583	   -118.60877719	   2168.78302478	     23.00887746	     16.55346000	     11.76202274	      8.11168627	    -45.00000000	    -35.63568200	     45.00000000	    -45.00000000	  -2784.15803493	    429.32448772	     14.64808394	    -75.00896962	    728.75329866	     28.74537130	      8.55023861	    -18.97611421
      9.06000000	     21.14038301	     35.77222914	     56.65560975	    -62.12668573	    775.20374292	     10.95729262	     13.15671697	     37.00213107	     33.11380059	     45.00000000	    -44.18920590	   2076.79125824	  -2279.43002445	    149.32767991	   -118.65879778	   2168.73832460	     24.47967772	     16.58377123	     11.56336349	      8.02040709	    -45.00000000	    -35.50652883	     45.00000000	    -45.00000000	  -2784.20336360	    429.21231017	     14.44392638	    -75.51087486	    728.61391052	     29.50082195	      8.50274309	    -18.97196890
      9.07000000	     20.74822969	     35.92469049	     57.27619824	    -59.35505965	    775.30628522	     11.20607229	     13.13674663	     36.93486136	     32.91650526	     45.00000000	    -44.37001802	   2077.04679325	  -2279.49556922	    149.37999519	   -118.92804088	   2168.67809720	     25.79898525	     16.61182284	     11.40990941	      8.02178680	    -45.00000000	    -35.45939418	     45.00000000	    -45.00000000	  -2784.27842187	    429.07143389	     14.27730675	    -75.78590398	    728.52232757	     30.18010244	      8.43264912	    -18.96307925
      9.08000000	     20.55760579	     35.92695000	     57.62430074	    -56.83056379	    775.50882005	     11.46067110	     13.20174779	     36.94730702	     32.81975997	     45.00000000	    -44.43776755	   2077.15834304	  -2279.68659192	    149.24880091	   -119.24488107	   2168.68371734	     27.09008913	     16.65006810	     11.26898995	      7.91410110	    -45.00000000	    -35.33343328	     45.00000000	    -45.00000000	  -2784.38951802	    428.90837347	     14.18526418	    -75.87417555	    728.36686980	     30.86221336	      8.38581793	    -18.95676942
      9.09000000	     20.24073745	     36.00008253	     58.10902268	    -54.55565166	    775.78516788	     11.72145673	     13.13802271	     36.87817615	     32.72989794	     45.00000000	    -44.58578495	   2077.35014219	  -2279.75925798	    149.30187852	   -119.65631157	   2168.65198961	     28.11486838	     16.68364108	     11.19909910	      7.94468646	    -45.00000000	    -35.32165483	     45.00000000	    -45.00000000	  -2784.41655131	    428.75059238	     14.14434399	    -75.69524939	    728.27843450	     31.40560049	      8.36275275	    -18.96170434
      9.10000000	     19.52059922	     36.24998869	     59.00851087	    -52.54304386	    776.11091680	     11.99954968	     13.39170482	     36.69109963	     31.91183584	     45.00000000	    -44.48477293	   2077.69571729	  -2279.56610117	    149.27389208	   -120.21262134	   2168.64019760	     28.67535712	     16.67546040	     11.01108420	      7.84113994	    -45.00000000	    -35.61730806	     45.00000000	    -45.00000000	  -2784.48066036	    428.70341702	     13.82863135	    -75.10983611	    728.23725330	     31.67567577	      8.17816942	    -18.90317856
      9.11000000	     19.51492327	     36.21592369	     59.18456938	    -50.79429235	    776.47422230	     12.30112504	     12.88151400	     36.68624474	     32.14632425	     45.00000000	    -44.69097671	   2077.70822613	  -2279.74303917	    149.19079781	   -120.64897344	   2168.53979786	     29.13758405	     16.70042049	     11.19260212	      8.16703070	    -45.00000000	    -35.46417034	     45.00000000	    -45.00000000	  -2784.36390153	    428.32973888	     14.04032360	    -74.99363191	    728.00325299	     31.96000886	      8.39230289	    -18.94740295
      9.12000000	     19.29185210	     36.26923468	     59.49915511	    -49.29159317	    776.86165585	     12.62859660	     13.35870311	     36.68610549	     32.05968134	     45.00000000	    -44.66364223	   2077.79008349	  -2279.86900182	    149.22619890	   -121.15616141	   2168.49022893	     29.41881016	     16.69360569	     11.06834661	      7.80710929	    -45.00000000	    -35.47118207	     45.00000000	    -45.00000000	  -2784.60486030	    428.31718565	     13.83051131	    -74.39883565	    727.98096295	     32.03812449	      8.16643635	    -18.87894426
      9.13000000	     19.32508421	     36.23631631	     59.51708425	    -48.02158961	    777.26612741	     12.97703776	     13.00653966	     36.73359405	     32.06076937	     45.00000000	    -44.62868013	   2077.92450184	  -2279.89873715	    149.13449176	   -121.58191361	   2168.46360388	     29.54132399	     16.72445930	     11.27525227	      7.97247624	    -45.00000000	    -35.38078401	     45.00000000	    -45.00000000	  -2784.51099966	    427.97883373	     14.08288320	    -74.06081478	    727.82288572	     32.04848245	      8.41964303	    -18.94075447
      9.14000000	     19.20358561	     36.29269391	     59.66501801	    -46.94526206	    777.68081735	     13.34218295	     13.25754768	     36.75521425	     32.11189355	     45.00000000	    -44.59208845	   2077.90985718	  -2280.06578114	    149.18194827	   -122.01864215	   2168.43108836	     29.47683284	     16.71392497	     11.19975504	      7.79050053	    -45.00000000	    -35.35423929	     45.00000000	    -45.00000000	  -2784.75810886	    427.98337025	     13.94167295	    -73.51227992	    727.83636480	     31.83999031	      8.24906685	    -18.88694252
      9.15000000	     19.21443679	     36.30198883	     59.63086201	    -46.01874316	    778.10218201	     13.70916871	     13.14678494	     36.78087911	     32.11684878	     45.00000000	    -44.52038760	   2078.00368051	  -2280.10971058	    149.14173421	   -122.35084363	   2168.40066785	     29.27508539	     16.71968130	     11.35716339	      7.81006633	    -45.00000000	    -35.33909560	     45.00000000	    -45.00000000	  -2784.75471047	    427.74326912	     14.14118691	    -73.18199609	    727.74466310	     31.54039857	      8.45724998	    -18.93336988
      9.16000000	     19.02763817	     36.39660443	     59.84912312	    -45.19001133	    778.52625925	     14.06290807	     13.21969902	     36.79584731	     31.97541752	     45.00000000	    -44.42119971	   2078.05007125	  -2280.13821770	    149.12999841	   -122.66202142	   2168.38527353	     28.94522596	     16.70892976	     11.32616026	      7.76269231	    -45.00000000	    -35.38605581	     45.00000000	    -45.00000000	  -2784.91419701	    427.71293580	     14.02028320	    -72.71194758	    727.72095403	     31.10108882	      8.39422698	    -18.90808218
      9.17000000	     19.00790192	     36.41763937	     59.86422992	    -44.43096101	    778.95709261	     14.39934844	     13.10346155	     36.78594272	     32.01769131	     45.00000000	    -44.41125338	   2078.12407607	  -2280.16192018	    149.09279221	   -122.82264206	   2168.37207181	     28.56134904	     16.70477109	     11.45616106	      7.83931181	    -45.00000000	    -35.38509201	     45.00000000	    -45.00000000	  -2784.88990142	    427.49978251	     14.17942033	    -72.48761627	    727.61438078	     30.63785407	      8.63560090	    -18.95391917
      9.18000000	     18.85498580	     36.51592368	     60.03508924	    -43.73309699	    779.39661698	     14.71896750	     13.18648628	     36.82672313	     31.97771656	     45.00000000	    -44.33446947	   2078.12956063	  -2280.20149819	    149.11017618	   -122.98741636	   2168.34329886	     28.12075083	     16.68486426	     11.40859865	      7.76994196	    -45.00000000	    -35.39439614	     45.00000000	    -45.00000000	  -2785.03872693	    427.50381071	     14.06780956	    -72.15469955	    727.62030014	     30.08441029	      8.59522769	    -18.93656433
      9.19000000	     18.84765684	     36.54197226	     60.01488101	    -43.08987187	    779.84611258	     15.02365304	     13.14928137	     36.80067516	     32.04488456	     45.00000000	    -44.34622343	   2078.17598745	  -2280.22653745	    149.05770932	   -123.01460680	   2168.35140118	     27.70733645	     16.68185764	     11.49998222	      7.81512104	    -45.00000000	    -35.40060006	     45.00000000	    -45.00000000	  -2785.04848881	    427.31834827	     14.21062608	    -72.03333262	    727.50982401	     29.57839162	      8.82476286	    -18.96886943
      9.20000000	     18.65556628	     36.63773399	     60.20890702	    -42.50021276	    780.30365109	     15.31524573	     13.21282516	     36.87094785	     31.92956797	     45.00000000	    -44.20289677	   2078.23276743	  -2280.25987842	    149.06958143	   -123.09144034	   2168.30120230	     27.31669863	     16.65755711	     11.40767741	      7.73751487	    -45.00000000	    -35.49338409	     45.00000000	    -45.00000000	  -2785.23435800	    427.33336083	     14.01936991	    -71.83373574	    727.45276568	     29.07033917	      8.78478282	    -18.93688347
      9.21000000	     18.78633397	     36.56464446	     60.05867427	    -41.97138424	    780.76082624	     15.59333954	     13.16788836	     36.80739851	     32.34448693	     45.00000000	    -44.39521743	   2078.21337734	  -2280.35395027	    149.07147564	   -122.96928370	   2168.44656411	     27.01266500	     16.70521692	     11.53535034	      7.84697329	    -45.00000000	    -35.37101188	     45.00000000	    -45.00000000	  -2785.14894713	    427.17146683	     14.25892770	    -71.85800707	    727.36651424	     28.65247716	      9.01029185	    -18.95764356
      9.22000000	     18.56676624	     36.69446156	     60.23431317	    -41.50922157	    781.20933418	     15.85851773	     13.50575705	     36.96079243	     32.14962812	     45.00000000	    -44.13677613	   2078.10673319	  -2280.54390168	    149.02054532	   -123.13434017	   2168.32048578	     26.72617513	     16.62651073	     11.24764956	      7.53604089	    -45.00000000	    -35.46002837	     45.00000000	    -45.00000000	  -2785.49288448	    427.32432402	     13.96107485	    -71.73468706	    727.40268092	     28.23976667	      8.85550103	    -18.92539376
